<?xml version="1.0" encoding="UTF-8" ?>
<!DOCTYPE svg PUBLIC "-//W3C//DTD SVG 1.1//EN" "http://www.w3.org/Graphics/SVG/1.1/DTD/svg11.dtd">
<svg width="400pt" height="400pt" viewBox="0 0 475 475" version="1.1" xmlns="http://www.w3.org/2000/svg">
<style type="text/css">  
.gear {
    transform-origin: 50% 50%;
    -webkit-animation:spin 4s linear infinite;
    -moz-animation:spin 4s linear infinite;
    animation:spin 4s linear infinite;
}
@-moz-keyframes spin { 100% { -moz-transform: rotate(360deg); } }
@-webkit-keyframes spin { 100% { -webkit-transform: rotate(360deg); } }
@keyframes spin { 100% { -webkit-transform: rotate(360deg); transform:rotate(360deg); } }
</style>
<path fill="#fefefe" d=" M 0.00 0.00 L 475.00 0.00 L 475.00 475.00 L 0.00 475.00 L 0.00 0.00 Z" />
<path fill="#2c2c2c" d=" M 68.39 2.30 C 81.42 0.47 94.88 3.03 106.91 8.17 C 131.38 18.78 149.03 43.56 150.66 70.23 C 151.38 77.18 151.70 84.27 149.99 91.11 C 148.48 97.22 148.36 103.67 150.12 109.74 C 152.43 116.22 159.02 121.08 165.99 120.74 C 169.34 120.94 172.62 119.99 175.50 118.32 C 199.13 105.93 226.53 101.07 253.01 104.28 C 262.11 105.10 270.85 107.94 279.84 109.47 C 284.91 111.09 289.68 113.56 294.67 115.44 C 300.15 117.61 304.75 122.39 311.00 122.19 C 317.96 122.38 324.01 117.27 326.40 110.97 C 327.07 105.48 326.88 99.77 325.06 94.49 C 323.02 88.54 323.47 82.17 323.43 75.99 C 324.85 66.68 325.81 57.17 329.17 48.29 C 330.82 43.59 333.73 39.49 336.39 35.33 C 347.19 18.85 364.70 6.93 384.07 3.20 C 399.49 -0.02 415.82 2.15 430.10 8.71 C 447.30 16.64 461.14 31.44 467.93 49.11 C 472.75 61.11 473.71 74.32 472.19 87.08 C 469.49 105.67 459.48 123.11 444.63 134.65 C 430.97 145.53 413.35 151.12 395.95 150.78 C 387.82 150.71 380.06 147.86 371.98 147.45 C 363.27 146.70 354.93 153.69 353.60 162.23 C 353.10 166.43 352.66 171.05 355.10 174.78 C 374.76 211.79 375.25 258.12 356.39 295.53 C 353.21 301.70 350.56 309.13 353.18 315.97 C 355.31 322.07 361.49 326.59 368.00 326.35 C 373.20 326.15 377.98 323.81 382.99 322.66 C 397.57 321.28 412.50 322.97 426.30 327.92 C 443.44 334.98 457.99 348.37 465.83 365.24 C 472.53 379.05 474.23 394.94 471.85 410.02 C 468.78 428.13 458.68 444.93 444.07 456.08 C 430.52 466.64 413.18 472.21 396.01 471.52 C 379.08 471.02 362.44 464.40 349.69 453.26 C 331.48 437.53 322.10 412.84 323.46 389.00 C 323.23 380.89 328.41 373.15 325.98 365.03 C 322.98 358.86 317.50 352.30 310.04 352.45 C 306.60 352.49 302.83 351.92 299.78 353.91 C 264.42 373.03 220.29 374.74 183.57 358.39 C 177.00 356.08 171.30 350.74 163.97 351.20 C 157.86 351.02 151.72 354.56 149.33 360.28 C 146.23 366.19 148.83 372.78 148.85 379.02 C 152.12 393.90 151.59 409.83 145.96 424.09 C 139.36 441.42 125.92 456.00 109.23 464.06 C 94.26 471.40 76.79 473.48 60.53 469.82 C 43.35 466.06 27.59 456.00 17.12 441.86 C 7.47 429.07 2.06 413.04 2.31 397.00 C 2.06 376.94 10.69 357.01 25.31 343.31 C 43.10 326.03 70.00 318.74 94.04 324.89 C 101.41 326.91 109.95 325.91 115.96 320.94 C 118.88 318.07 121.73 314.35 121.60 310.05 C 121.59 306.89 122.02 303.45 120.34 300.61 C 111.68 284.76 106.14 267.17 104.51 249.18 C 104.49 242.76 102.99 236.36 104.20 229.97 C 104.81 208.82 111.29 188.04 121.73 169.70 C 123.74 166.45 124.27 162.21 122.48 158.74 C 120.35 152.73 114.86 146.92 108.06 147.29 C 103.31 147.03 98.56 147.55 93.95 148.69 C 79.98 151.73 65.15 151.17 51.66 146.27 C 33.64 139.95 18.34 126.37 9.95 109.22 C 0.96 91.26 -0.20 69.60 6.67 50.75 C 15.85 24.66 40.79 4.87 68.39 2.30 Z" />
<path fill="#fefefe" d=" M 69.37 36.43 C 86.53 32.98 105.17 42.74 112.30 58.69 C 118.26 71.59 116.79 87.78 108.12 99.12 C 97.62 113.75 76.60 119.23 60.26 111.67 C 43.64 104.63 33.46 85.16 37.52 67.51 C 40.42 51.92 53.71 38.95 69.37 36.43 Z" />
<path fill="#fefefe" d=" M 391.37 36.43 C 408.53 32.98 427.16 42.74 434.30 58.69 C 440.26 71.58 438.79 87.78 430.12 99.12 C 419.62 113.75 398.60 119.23 382.26 111.67 C 365.64 104.63 355.46 85.16 359.52 67.51 C 362.42 51.93 375.71 38.95 391.37 36.43 Z" />
<path fill="#fefefe" d=" M 227.36 152.10 C 247.03 149.65 267.55 154.08 284.34 164.65 C 312.70 181.88 329.20 216.46 324.62 249.33 C 322.30 269.30 312.66 288.26 298.01 302.00 C 282.50 316.66 261.41 325.37 240.05 325.60 C 219.98 326.21 199.76 319.47 184.06 306.95 C 168.36 294.71 157.25 276.79 153.08 257.34 C 150.71 248.10 151.20 238.47 151.53 229.03 C 153.51 211.56 160.70 194.59 172.40 181.39 C 186.23 165.22 206.27 154.69 227.36 152.10 Z" />
<path fill="#02537d" class="gear" d=" M 255.57 170.04 C 266.96 174.69 279.35 178.72 287.94 188.01 C 281.97 193.65 275.85 199.10 270.05 204.91 C 275.57 210.76 279.89 217.78 282.12 225.53 C 289.78 223.13 297.44 220.73 305.13 218.42 L 305.91 218.87 C 308.15 226.04 307.87 233.63 307.76 241.05 C 307.71 245.58 306.53 250.01 305.16 254.30 C 297.24 252.04 289.44 249.37 281.49 247.22 C 278.68 254.94 274.61 262.39 268.33 267.83 C 274.31 273.33 280.56 278.52 286.66 283.89 C 278.11 292.26 267.13 297.72 255.69 300.93 C 253.67 293.16 251.87 285.35 249.85 277.58 C 242.00 278.57 234.00 278.85 226.21 277.21 C 224.05 285.09 222.03 293.01 219.71 300.84 C 209.01 296.61 197.75 292.14 190.06 283.18 C 196.04 277.76 201.86 272.17 207.80 266.71 C 202.13 261.03 197.73 254.16 195.32 246.48 C 187.52 249.02 179.54 250.97 171.80 253.69 C 168.33 242.67 168.20 230.66 171.17 219.51 C 179.08 221.69 186.92 224.13 194.90 226.04 C 197.46 218.62 200.57 211.08 206.45 205.62 C 200.17 200.41 193.98 195.09 187.83 189.73 C 196.66 180.92 207.67 174.00 219.81 170.87 C 222.00 178.57 224.02 186.33 226.33 194.00 C 233.87 192.86 241.54 192.45 249.13 193.47 C 251.38 185.69 253.47 177.86 255.57 170.04 Z" />
<path fill="#FFFFFF" d=" M 232.42 215.58 C 239.87 213.27 248.49 215.49 253.96 221.03 C 258.36 225.42 260.60 231.85 259.78 238.02 C 258.84 246.28 252.37 253.50 244.31 255.45 C 238.07 257.29 231.07 255.97 225.79 252.23 C 219.59 247.90 216.06 239.98 217.32 232.48 C 218.41 224.50 224.62 217.58 232.42 215.58 Z" />
<path fill="#02537d" d=" M 235.32 228.09 C 240.47 225.62 247.38 230.12 246.68 235.92 C 246.72 242.36 238.01 245.81 233.32 241.68 C 228.50 238.28 229.71 229.96 235.32 228.09 Z" />
<path fill="#fefefe" d=" M 69.37 357.43 C 86.53 353.98 105.17 363.74 112.30 379.69 C 118.26 392.59 116.79 408.78 108.12 420.12 C 97.62 434.75 76.60 440.23 60.26 432.67 C 43.64 425.63 33.46 406.16 37.52 388.51 C 40.42 372.92 53.71 359.94 69.37 357.43 Z" />
<path fill="#fefefe" d=" M 391.38 357.43 C 408.53 353.98 427.16 363.74 434.30 379.69 C 440.26 392.58 438.79 408.78 430.11 420.13 C 419.61 434.75 398.60 440.23 382.26 432.67 C 365.64 425.63 355.46 406.16 359.52 388.51 C 362.42 372.92 375.71 359.94 391.38 357.43 Z" />
</svg>
